{
  "accessors": [
    {
      "bufferView": 2,
      "componentType": 5126,
      "count": 43089,
      "max": [
        383.5235900878906,
        429.3558349609375,
        371.1231689453125
      ],
      "min": [
        -383.54473876953125,
        -138.89559936523438,
        -371.36395263671875
      ],
      "type": "VEC3"
    },
    {
      "bufferView": 2,
      "byteOffset": 517068,
      "componentType": 5126,
      "count": 43089,
      "max": [
        0.9998049736022949,
        0.9999962449073792,
        0.9998701810836792
      ],
      "min": [
        -0.9998535513877869,
        -1.0,
        -0.9995465278625488
      ],
      "type": "VEC3"
    },
    {
      "bufferView": 1,
      "componentType": 5126,
      "count": 43089,
      "max": [
        1.4642760753631592,
        0.9340216517448425
      ],
      "min": [
        3.060890594497323e-05,
        0.002047896385192871
      ],
      "type": "VEC2"
    },
    {
      "bufferView": 0,
      "componentType": 5125,
      "count": 255444,
      "type": "SCALAR"
    }
  ],
  "asset": {
    "extras": {
      "author": "lionarts3d (https://sketchfab.com/lionarts3d)",
      "license": "CC-BY-4.0 (http://creativecommons.org/licenses/by/4.0/)",
      "source": "https://sketchfab.com/3d-models/abstract-figure-twist-de22538726ec4aef934b24ab69ed2c4d",
      "title": "Abstract figure (twist)"
    },
    "generator": "Sketchfab-12.67.0",
    "version": "2.0"
  },
  "bufferViews": [
    {
      "buffer": 0,
      "byteLength": 1021776,
      "name": "floatBufferViews",
      "target": 34963
    },
    {
      "buffer": 0,
      "byteLength": 344712,
      "byteOffset": 1021776,
      "byteStride": 8,
      "name": "floatBufferViews",
      "target": 34962
    },
    {
      "buffer": 0,
      "byteLength": 1034136,
      "byteOffset": 1366488,
      "byteStride": 12,
      "name": "floatBufferViews",
      "target": 34962
    }
  ],
  "buffers": [
    {
      "byteLength": 2400624,
      "uri": "scene.bin"
    }
  ],
  "materials": [
    {
      "doubleSided": true,
      "name": "figure",
      "pbrMetallicRoughness": {
        "roughnessFactor": 0.0
      }
    }
  ],
  "meshes": [
    {
      "name": "figure__figure _0",
      "primitives": [
        {
          "attributes": {
            "NORMAL": 1,
            "POSITION": 0,
            "TEXCOORD_0": 2
          },
          "indices": 3,
          "material": 0,
          "mode": 4
        }
      ]
    }
  ],
  "nodes": [
    {
      "children": [
        1
      ],
      "matrix": [
        1.0,
        0.0,
        0.0,
        0.0,
        0.0,
        2.220446049250313e-16,
        -1.0,
        0.0,
        0.0,
        1.0,
        2.220446049250313e-16,
        0.0,
        0.0,
        0.0,
        0.0,
        1.0
      ],
      "name": "Sketchfab_model"
    },
    {
      "children": [
        2
      ],
      "matrix": [
        0.009999999776482582,
        0.0,
        0.0,
        0.0,
        0.0,
        0.0,
        0.009999999776482582,
        0.0,
        0.0,
        -0.009999999776482582,
        0.0,
        0.0,
        0.0,
        0.0,
        0.0,
        1.0
      ],
      "name": "7414df5b0a874230b83e3ec487841df3.fbx"
    },
    {
      "children": [
        3
      ],
      "name": "RootNode"
    },
    {
      "children": [
        4
      ],
      "matrix": [
        1.0,
        0.0,
        0.0,
        0.0,
        0.0,
        1.0,
        2.4492935982947064e-16,
        0.0,
        0.0,
        -2.4492935982947064e-16,
        1.0,
        0.0,
        0.0,
        145.28616333007813,
        2.6688634280542557e-14,
        1.0
      ],
      "name": "figure_"
    },
    {
      "mesh": 0,
      "name": "figure__figure _0"
    }
  ],
  "scene": 0,
  "scenes": [
    {
      "name": "Sketchfab_Scene",
      "nodes": [
        0
      ]
    }
  ]
}
